# xmcd
#
# Track frame offsets:
#	150
#	33352
#	50350
#	66772
#	96167
#	129147
#	159915
#
# Disc length: 2567 seconds
# Revision: 0
# Processed by: cddbd v1.5.2PL0 Copyright (c) Steve Scherf et al.
# Submitted via: dBpowerAMP V12.0
#
DISCID=4d0a0507
DTITLE=Kelly Bienvenue - Come Back To Me
DYEAR=2000
DGENRE=House
TTITLE0=Come Back To Me [Radio Main Mix]
TTITLE1=Come Back To Me [Welcome's Radio Disco Remix]
TTITLE2=Come Back To Me [MG Edit]
TTITLE3=Come Back To Me [Welcome's Disco Remix]
TTITLE4=Come Back To Me [MG Sound Sonic]
TTITLE5=Come Back To Me [Vocal Dub]
TTITLE6=Come Back To Me [MG Flange Trip]
EXTD=
EXTT0=
EXTT1=
EXTT2=
EXTT3=
EXTT4=
EXTT5=
EXTT6=
PLAYORDER=
